<svg width="115" height="17" viewBox="0 0 115 17" fill="none" xmlns="http://www.w3.org/2000/svg">
    <path d="M6.85352 1.55664C2.76172 1.55664 0.183594 4.39844 0.183594 8.94922C0.183594 13.5 2.72266 16.3516 6.85352 16.3516C10.9648 16.3516 13.5137 13.4902 13.5137 8.94922C13.5137 4.39844 10.9551 1.55664 6.85352 1.55664ZM6.85352 3.79297C9.35352 3.79297 10.9453 5.79492 10.9453 8.94922C10.9453 12.0938 9.36328 14.1152 6.85352 14.1152C4.31445 14.1152 2.76172 12.0938 2.76172 8.94922C2.76172 5.79492 4.35352 3.79297 6.85352 3.79297ZM19.7441 14.2715C18.6699 14.2715 17.8984 13.7344 17.8984 12.8359C17.8984 11.9668 18.5332 11.4785 19.8906 11.3906L22.3027 11.2344V12.084C22.3027 13.3242 21.209 14.2715 19.7441 14.2715ZM19.0312 16.1758C20.4277 16.1758 21.5996 15.5703 22.1953 14.5352H22.3613V16H24.6953V8.70508C24.6953 6.43945 23.1523 5.10156 20.4082 5.10156C17.8691 5.10156 16.1016 6.30273 15.9062 8.1875H18.1914C18.416 7.46484 19.1777 7.07422 20.291 7.07422C21.5996 7.07422 22.3027 7.66016 22.3027 8.70508V9.60352L19.5488 9.76953C16.9512 9.92578 15.4961 11.0391 15.4961 12.9727C15.4961 14.9258 16.9707 16.1758 19.0312 16.1758ZM27.3711 8.37305C27.3711 9.98438 28.3379 10.9316 30.3887 11.4004L32.2832 11.8398C33.2988 12.0645 33.7578 12.4453 33.7578 13.0508C33.7578 13.8418 32.9082 14.3789 31.6875 14.3789C30.4766 14.3789 29.7246 13.9102 29.4902 13.1191H27.0977C27.2832 15.0625 28.9629 16.2148 31.6289 16.2148C34.2949 16.2148 36.1797 14.8477 36.1797 12.7969C36.1797 11.2246 35.2324 10.3457 33.1914 9.88672L31.3066 9.45703C30.2324 9.21289 29.7246 8.8418 29.7246 8.23633C29.7246 7.46484 30.5547 6.9375 31.6582 6.9375C32.791 6.9375 33.5039 7.41602 33.6797 8.16797H35.9551C35.7793 6.22461 34.1875 5.10156 31.6484 5.10156C29.1289 5.10156 27.3711 6.43945 27.3711 8.37305ZM38.6602 16H41.0723V5.31641H38.6602V16ZM39.8613 3.54883C40.6621 3.54883 41.3066 2.9043 41.3066 2.09375C41.3066 1.2832 40.6621 0.628906 39.8613 0.628906C39.0703 0.628906 38.416 1.2832 38.416 2.09375C38.416 2.9043 39.0703 3.54883 39.8613 3.54883ZM43.8359 8.37305C43.8359 9.98438 44.8027 10.9316 46.8535 11.4004L48.748 11.8398C49.7637 12.0645 50.2227 12.4453 50.2227 13.0508C50.2227 13.8418 49.373 14.3789 48.1523 14.3789C46.9414 14.3789 46.1895 13.9102 45.9551 13.1191H43.5625C43.748 15.0625 45.4277 16.2148 48.0938 16.2148C50.7598 16.2148 52.6445 14.8477 52.6445 12.7969C52.6445 11.2246 51.6973 10.3457 49.6562 9.88672L47.7715 9.45703C46.6973 9.21289 46.1895 8.8418 46.1895 8.23633C46.1895 7.46484 47.0195 6.9375 48.123 6.9375C49.2559 6.9375 49.9688 7.41602 50.1445 8.16797H52.4199C52.2441 6.22461 50.6523 5.10156 48.1133 5.10156C45.5938 5.10156 43.8359 6.43945 43.8359 8.37305ZM66.707 16V4.08594H71.0527V1.9082H59.8516V4.08594H64.1875V16H66.707ZM72.1855 16H74.6074V9.82812C74.6074 8.33398 75.7012 7.35742 77.2734 7.35742C77.6836 7.35742 78.3281 7.42578 78.5137 7.49414V5.24805C78.2891 5.17969 77.8594 5.14062 77.5078 5.14062C76.1309 5.14062 74.9785 5.92188 74.6855 6.97656H74.5195V5.31641H72.1855V16ZM84.0215 14.2715C82.9473 14.2715 82.1758 13.7344 82.1758 12.8359C82.1758 11.9668 82.8105 11.4785 84.168 11.3906L86.5801 11.2344V12.084C86.5801 13.3242 85.4863 14.2715 84.0215 14.2715ZM83.3086 16.1758C84.7051 16.1758 85.877 15.5703 86.4727 14.5352H86.6387V16H88.9727V8.70508C88.9727 6.43945 87.4297 5.10156 84.6855 5.10156C82.1465 5.10156 80.3789 6.30273 80.1836 8.1875H82.4688C82.6934 7.46484 83.4551 7.07422 84.5684 7.07422C85.877 7.07422 86.5801 7.66016 86.5801 8.70508V9.60352L83.8262 9.76953C81.2285 9.92578 79.7734 11.0391 79.7734 12.9727C79.7734 14.9258 81.248 16.1758 83.3086 16.1758ZM95.7598 16.1758C97.2441 16.1758 98.4746 15.4824 99.0801 14.3105H99.2461V16H101.59V1.18555H99.168V7.01562H99.002C98.4355 5.84375 97.2246 5.14062 95.7598 5.14062C93.0645 5.14062 91.3652 7.26953 91.3652 10.6484C91.3652 14.0469 93.0547 16.1758 95.7598 16.1758ZM96.5117 7.20117C98.1719 7.20117 99.1973 8.5293 99.1973 10.6582C99.1973 12.8066 98.1816 14.1152 96.5117 14.1152C94.8516 14.1152 93.8457 12.8164 93.8457 10.6582C93.8457 8.50977 94.8613 7.20117 96.5117 7.20117ZM109.129 7.02539C110.584 7.02539 111.541 8.04102 111.59 9.62305H106.561C106.668 8.06055 107.684 7.02539 109.129 7.02539ZM111.609 13.0605C111.258 13.8516 110.428 14.291 109.227 14.291C107.635 14.291 106.609 13.1777 106.551 11.4004V11.2734H114.012V10.4922C114.012 7.12305 112.186 5.10156 109.139 5.10156C106.043 5.10156 104.119 7.25977 104.119 10.6973C104.119 14.1348 106.014 16.2148 109.158 16.2148C111.678 16.2148 113.465 15.0039 113.904 13.0605H111.609Z" fill="#708390"/>
</svg>
